<svg xmlns="http://www.w3.org/2000/svg" width="395" height="250" fill="none" viewBox="0 0 395 250" class="icon mb-8 mt-8 h-auto w-[250px] max-sm:mb-4 max-sm:w-[150px]"><g clip-path="url(#clip0_31228_3705)"><path fill="#F9DCF1" d="M39.116 184.15C75.66-.439 324.164 5.297 356.01 184.15c59.518-15.122 46.463 116.28-10.964 92.294-69.956 119.409-224.488 124.623-290.79 0-65.259 18.25-72.046-105.33-15.14-92.294"></path><path fill="#FF87C7" d="M39.118 190.407c-32.172-8.653-44.376 55.272-9.92 75.608-24.34-31.074-9.722-60.275 9.92-75.608"></path><path stroke="#FF87C7" stroke-linecap="round" stroke-width="3.54" d="M158.944 1.859c8.629.272 20.95-.378 29.221 3.677 3.001 1.472 6.021 3.852 7.198 6.978 3.013 8.003-4.799 13.945-10.22 17.162-3.242 1.925-6.926 3.297-10.668 3.772-3.337.423-9.08-1.089-7.364-6.035 2.876-8.292 16.755-8.244 23.059-7.662 8.442.78 15.486 2.46 21.856 8.416 8.146 7.617 8.777 19.025 1.912 27.77-5.911 7.53-16.445 12.318-25.68 13.838"></path><path stroke="#FF87C7" stroke-linecap="round" stroke-width="7.08" d="M265.891 158.29c7.831 1.042 13.051 3.65 15.14 8.343M129.631 158.29c-7.831 1.042-13.051 3.65-15.14 8.343"></path><path fill="#FF87C7" d="M356.914 191.419c32.172-8.653 44.376 55.272 9.919 75.608 24.342-31.075 9.724-60.275-9.919-75.608"></path></g><defs><clipPath id="clip0_31228_3705"><path fill="#fff" d="M394.841.816H.159V368.95h394.682z"></path></clipPath></defs></svg>