<svg xmlns="http://www.w3.org/2000/svg" xmlns:xlink="http://www.w3.org/1999/xlink" viewBox="0 0 192 192" width="192" height="192" preserveAspectRatio="xMidYMid meet" style="width: 100%; height: 100%; transform: translate3d(0px, 0px, 0px); content-visibility: visible;"><defs><clipPath id="__lottie_element_375"><rect width="192" height="192" x="0" y="0"></rect></clipPath></defs><g clip-path="url(#__lottie_element_375)"><g style="display: block;" transform="matrix(1,0,0,1,12.680000305175781,23.75)" opacity="1"><g opacity="1" transform="matrix(1,0,0,1,83.31999969482422,139.6300048828125)"><path fill="rgb(0,99,253)" fill-opacity="1" d=" M-11.069999694824219,-4.619999885559082 C-11.069999694824219,-4.619999885559082 11.069999694824219,-4.619999885559082 11.069999694824219,-4.619999885559082 C11.069999694824219,-4.619999885559082 11.069999694824219,4.619999885559082 11.069999694824219,4.619999885559082 C11.069999694824219,4.619999885559082 -11.069999694824219,4.619999885559082 -11.069999694824219,4.619999885559082 C-11.069999694824219,4.619999885559082 -11.069999694824219,-4.619999885559082 -11.069999694824219,-4.619999885559082z"></path></g><g opacity="1" transform="matrix(1,0,0,1,72.25,72.25)"><path fill="rgb(0,99,253)" fill-opacity="1" d=" M0,-72 C39.763999938964844,-72 72,-39.763999938964844 72,0 C72,39.763999938964844 39.763999938964844,72 0,72 C-39.76499938964844,72 -72,39.763999938964844 -72,0 C-72,-39.763999938964844 -39.76499938964844,-72 0,-72z"></path></g><g opacity="1" transform="matrix(1,0,0,1,81.56500244140625,7.644999980926514)"><path fill="rgb(0,99,253)" fill-opacity="1" d=" M-11.444999694824219,-7.394999980926514 C-11.444999694824219,-7.394999980926514 11.444999694824219,-7.394999980926514 11.444999694824219,-7.394999980926514 C11.444999694824219,-7.394999980926514 11.444999694824219,7.394999980926514 11.444999694824219,7.394999980926514 C11.444999694824219,7.394999980926514 -11.444999694824219,7.394999980926514 -11.444999694824219,7.394999980926514 C-11.444999694824219,7.394999980926514 -11.444999694824219,-7.394999980926514 -11.444999694824219,-7.394999980926514z"></path></g><g opacity="1" transform="matrix(1,0,0,1,81.71499633789062,131.47000122070312)"><path fill="rgb(0,99,253)" fill-opacity="1" d=" M-10.484999656677246,-6.78000020980835 C-10.484999656677246,-6.78000020980835 10.484999656677246,-6.78000020980835 10.484999656677246,-6.78000020980835 C10.484999656677246,-6.78000020980835 10.484999656677246,6.78000020980835 10.484999656677246,6.78000020980835 C10.484999656677246,6.78000020980835 -10.484999656677246,6.78000020980835 -10.484999656677246,6.78000020980835 C-10.484999656677246,6.78000020980835 -10.484999656677246,-6.78000020980835 -10.484999656677246,-6.78000020980835z"></path></g><g opacity="1" transform="matrix(1,0,0,1,94.38999938964844,72.25)"><path fill="rgb(223,244,255)" fill-opacity="1" d=" M0,-72 C39.763999938964844,-72 72,-39.763999938964844 72,0 C72,39.763999938964844 39.763999938964844,72 0,72 C-39.76499938964844,72 -72,39.763999938964844 -72,0 C-72,-39.763999938964844 -39.76499938964844,-72 0,-72z"></path><path fill="rgb(128,189,240)" fill-opacity="1" d=" M0,-72 C39.763999938964844,-72 72,-39.763999938964844 72,0 C72,39.763999938964844 39.763999938964844,72 0,72 C-39.76499938964844,72 -72,39.763999938964844 -72,0 C-72,-39.763999938964844 -39.76499938964844,-72 0,-72z"></path></g><g opacity="1" transform="matrix(1,0,0,1,94.38999938964844,72.25)"><path fill="rgb(0,99,253)" fill-opacity="1" d=" M0,55.349998474121094 C-30.540000915527344,55.349998474121094 -55.349998474121094,30.510000228881836 -55.349998474121094,0 C-55.349998474121094,-30.510000228881836 -30.510000228881836,-55.349998474121094 0,-55.349998474121094 C30.510000228881836,-55.349998474121094 55.349998474121094,-30.510000228881836 55.349998474121094,0 C55.349998474121094,30.510000228881836 30.510000228881836,55.349998474121094 0,55.349998474121094z M0,-49.380001068115234 C-27.209999084472656,-49.380001068115234 -49.349998474121094,-27.239999771118164 -49.349998474121094,-0.029999999329447746 C-49.349998474121094,27.18000030517578 -27.209999084472656,49.31999969482422 0,49.31999969482422 C27.209999084472656,49.31999969482422 49.349998474121094,27.18000030517578 49.349998474121094,-0.029999999329447746 C49.349998474121094,-27.239999771118164 27.209999084472656,-49.380001068115234 0,-49.380001068115234z"></path></g><g opacity="1" transform="matrix(1,0,0,1,94.38999938964844,72.25)"><path fill="rgb(0,99,253)" fill-opacity="1" d=" M0,35.72999954223633 C-19.709999084472656,35.72999954223633 -35.72999954223633,19.709999084472656 -35.72999954223633,0 C-35.72999954223633,-19.709999084472656 -19.709999084472656,-35.72999954223633 0,-35.72999954223633 C19.709999084472656,-35.72999954223633 35.72999954223633,-19.709999084472656 35.72999954223633,0 C35.72999954223633,19.709999084472656 19.709999084472656,35.72999954223633 0,35.72999954223633z M0,-29.729999542236328 C-16.3799991607666,-29.729999542236328 -29.729999542236328,-16.3799991607666 -29.729999542236328,0 C-29.729999542236328,16.3799991607666 -16.3799991607666,29.729999542236328 0,29.729999542236328 C16.3799991607666,29.729999542236328 29.729999542236328,16.3799991607666 29.729999542236328,0 C29.729999542236328,-16.3799991607666 16.3799991607666,-29.729999542236328 0,-29.729999542236328z"></path></g></g><g style="display: block;" transform="matrix(1,0,0,1,30.634002685546875,87.68000030517578)" opacity="1"><g opacity="1" transform="matrix(1,0,0,1,41.57400131225586,44.047000885009766)"><path fill="rgb(255,255,255)" fill-opacity="1" d=" M-41.32400131225586,37.08100128173828 C-41.32400131225586,37.08100128173828 37.08100128173828,-41.32400131225586 37.08100128173828,-41.32400131225586 C37.08100128173828,-41.32400131225586 41.32400131225586,-37.08100128173828 41.32400131225586,-37.08100128173828 C41.32400131225586,-37.08100128173828 -37.08100128173828,41.32400131225586 -37.08100128173828,41.32400131225586 C-37.08100128173828,41.32400131225586 -41.32400131225586,37.08100128173828 -41.32400131225586,37.08100128173828z"></path></g><g opacity="1" transform="matrix(1,0,0,1,67.3759994506836,18.25)"><path fill="rgb(255,255,255)" fill-opacity="1" d=" M16.68000030517578,18 C16.68000030517578,18 10.680000305175781,17.790000915527344 10.680000305175781,17.790000915527344 C10.680000305175781,17.790000915527344 11.760000228881836,-11.760000228881836 11.760000228881836,-11.760000228881836 C11.760000228881836,-11.760000228881836 -17.790000915527344,-10.680000305175781 -17.790000915527344,-10.680000305175781 C-17.790000915527344,-10.680000305175781 -18,-16.68000030517578 -18,-16.68000030517578 C-18,-16.68000030517578 18,-18 18,-18 C18,-18 16.68000030517578,18 16.68000030517578,18z"></path></g></g></g></svg>