<svg xmlns="http://www.w3.org/2000/svg" width="39" height="32" viewBox="0 0 39 32"><path fill="#022B69" d="M39 3.788a16.6 16.6 0 0 1-4.607 1.275A8 8 0 0 0 37.91.6a15.9 15.9 0 0 1-5.07 1.954A7.98 7.98 0 0 0 27-.001c-4.427 0-7.99 3.628-7.99 8.076 0 .64.054 1.255.185 1.841-6.647-.327-12.529-3.545-16.48-8.446a8.2 8.2 0 0 0-1.094 4.081 8.11 8.11 0 0 0 3.551 6.71 7.84 7.84 0 0 1-3.612-.994v.089c0 3.924 2.771 7.183 6.406 7.934-.651.18-1.36.266-2.096.266-.512 0-1.029-.03-1.514-.138 1.036 3.198 3.976 5.548 7.471 5.625a15.96 15.96 0 0 1-9.913 3.444c-.656 0-1.285-.03-1.913-.111a22.35 22.35 0 0 0 12.265 3.623c14.713 0 22.756-12.308 22.756-22.976 0-.357-.012-.702-.029-1.044C36.58 6.842 37.913 5.421 39 3.787z"></path></svg>